{
    "asset" : {
        "generator" : "Khronos glTF Blender I/O v1.1.45",
        "version" : "2.0"
    },
    "scene" : 0,
    "scenes" : [
        {
            "name" : "Scene",
            "nodes" : [
                0
            ]
        }
    ],
    "nodes" : [
        {
            "mesh" : 0,
            "name" : "AppleT4"
        }
    ],
    "materials" : [
        {
            "doubleSided" : true,
            "emissiveFactor" : [
                0,
                0,
                0
            ],
            "name" : "Apfel_1_Schale",
            "normalTexture" : {
                "index" : 0,
                "scale" : 0.5,
                "texCoord" : 0
            },
            "pbrMetallicRoughness" : {
                "baseColorTexture" : {
                    "index" : 1,
                    "texCoord" : 0
                },
                "metallicFactor" : 0,
                "metallicRoughnessTexture" : {
                    "index" : 2,
                    "texCoord" : 0
                }
            }
        },
        {
            "doubleSided" : true,
            "emissiveFactor" : [
                0,
                0,
                0
            ],
            "name" : "Apfel_1_Stengel",
            "pbrMetallicRoughness" : {
                "baseColorTexture" : {
                    "index" : 3,
                    "texCoord" : 0
                },
                "metallicFactor" : 0,
                "roughnessFactor" : 0.5
            }
        }
    ],
    "meshes" : [
        {
            "name" : "Sphere.003",
            "primitives" : [
                {
                    "attributes" : {
                        "POSITION" : 0,
                        "NORMAL" : 1,
                        "TEXCOORD_0" : 2
                    },
                    "indices" : 3,
                    "material" : 0
                },
                {
                    "attributes" : {
                        "POSITION" : 4,
                        "NORMAL" : 5,
                        "TEXCOORD_0" : 6
                    },
                    "indices" : 7,
                    "material" : 1
                }
            ]
        }
    ],
    "textures" : [
        {
            "source" : 0
        },
        {
            "source" : 1
        },
        {
            "source" : 2
        },
        {
            "source" : 1
        }
    ],
    "images" : [
        {
            "bufferView" : 4,
            "mimeType" : "image/jpeg",
            "name" : "Apfel_1_normal.jpg"
        },
        {
            "bufferView" : 5,
            "mimeType" : "image/jpeg",
            "name" : "Apfel_1_diffuse.jpg"
        },
        {
            "bufferView" : 6,
            "mimeType" : "image/jpeg",
            "name" : "Metal15_rgh.jpg"
        }
    ],
    "accessors" : [
        {
            "bufferView" : 0,
            "componentType" : 5126,
            "count" : 3489,
            "max" : [
                0.04158150404691696,
                0.03975479304790497,
                0.04095286875963211
            ],
            "min" : [
                -0.04114057496190071,
                -0.03756702318787575,
                -0.039858702570199966
            ],
            "type" : "VEC3"
        },
        {
            "bufferView" : 1,
            "componentType" : 5126,
            "count" : 3489,
            "type" : "VEC3"
        },
        {
            "bufferView" : 2,
            "componentType" : 5126,
            "count" : 3489,
            "type" : "VEC2"
        },
        {
            "bufferView" : 3,
            "componentType" : 5123,
            "count" : 14292,
            "type" : "SCALAR"
        },
        {
            "bufferView" : 7,
            "componentType" : 5126,
            "count" : 511,
            "max" : [
                0.0007318923599086702,
                0.04441273957490921,
                0.015077917836606503
            ],
            "min" : [
                -0.015555372461676598,
                0.023704905062913895,
                0.0027849336620420218
            ],
            "type" : "VEC3"
        },
        {
            "bufferView" : 8,
            "componentType" : 5126,
            "count" : 511,
            "type" : "VEC3"
        },
        {
            "bufferView" : 9,
            "componentType" : 5126,
            "count" : 511,
            "type" : "VEC2"
        },
        {
            "bufferView" : 10,
            "componentType" : 5123,
            "count" : 2544,
            "type" : "SCALAR"
        }
    ],
    "bufferViews" : [
        {
            "buffer" : 0,
            "byteLength" : 41868,
            "byteOffset" : 0
        },
        {
            "buffer" : 0,
            "byteLength" : 41868,
            "byteOffset" : 41868
        },
        {
            "buffer" : 0,
            "byteLength" : 27912,
            "byteOffset" : 83736
        },
        {
            "buffer" : 0,
            "byteLength" : 28584,
            "byteOffset" : 111648
        },
        {
            "buffer" : 0,
            "byteLength" : 683067,
            "byteOffset" : 140232
        },
        {
            "buffer" : 0,
            "byteLength" : 1587744,
            "byteOffset" : 823300
        },
        {
            "buffer" : 0,
            "byteLength" : 627753,
            "byteOffset" : 2411044
        },
        {
            "buffer" : 0,
            "byteLength" : 6132,
            "byteOffset" : 3038800
        },
        {
            "buffer" : 0,
            "byteLength" : 6132,
            "byteOffset" : 3044932
        },
        {
            "buffer" : 0,
            "byteLength" : 4088,
            "byteOffset" : 3051064
        },
        {
            "buffer" : 0,
            "byteLength" : 5088,
            "byteOffset" : 3055152
        }
    ],
    "buffers" : [
        {
            "byteLength" : 3060240,
            "uri" : "data:application/octet-stream;base64,"
        }
    ]
}
